<svg xmlns="http://www.w3.org/2000/svg" xmlns:xlink="http://www.w3.org/1999/xlink" width="278pt" height="260pt" viewBox="0.00 0.00 278.00 260.00">
<g id="graph0" class="graph" transform="scale(1 1) rotate(0) translate(4 256)">
<title>G</title>
<polygon fill="#ffffff" stroke="transparent" points="-4,4 -4,-256 274,-256 274,4 -4,4"/>
<!-- D_and -->
<g id="node1" class="node">
<title>D_and</title>
<ellipse fill="none" stroke="#000000" cx="99" cy="-90" rx="27" ry="18"/>
<text text-anchor="middle" x="99" y="-85.8" font-family="Times,serif" font-size="14.00" fill="#000000">and</text>
</g>
<!-- A -->
<g id="node7" class="node">
<title>A</title>
<ellipse fill="none" stroke="#000000" cx="99" cy="-18" rx="27" ry="18"/>
<text text-anchor="middle" x="99" y="-13.8" font-family="Times,serif" font-size="14.00" fill="#000000">A</text>
</g>
<!-- D_and&#45;&gt;A -->
<g id="edge6" class="edge">
<title>D_and-&gt;A</title>
<path fill="none" stroke="#000000" d="M99,-71.8314C99,-64.131 99,-54.9743 99,-46.4166"/>
<polygon fill="#000000" stroke="#000000" points="102.5001,-46.4132 99,-36.4133 95.5001,-46.4133 102.5001,-46.4132"/>
</g>
<!-- B -->
<g id="node8" class="node">
<title>B</title>
<ellipse fill="none" stroke="#000000" cx="27" cy="-18" rx="27" ry="18"/>
<text text-anchor="middle" x="27" y="-13.8" font-family="Times,serif" font-size="14.00" fill="#000000">B</text>
</g>
<!-- D_and&#45;&gt;B -->
<g id="edge7" class="edge">
<title>D_and-&gt;B</title>
<path fill="none" stroke="#000000" d="M83.7307,-74.7307C73.803,-64.803 60.6847,-51.6847 49.5637,-40.5637"/>
<polygon fill="#000000" stroke="#000000" points="51.7933,-37.8436 42.2473,-33.2473 46.8436,-42.7933 51.7933,-37.8436"/>
</g>
<!-- C -->
<g id="node9" class="node">
<title>C</title>
<ellipse fill="none" stroke="#000000" cx="171" cy="-18" rx="27" ry="18"/>
<text text-anchor="middle" x="171" y="-13.8" font-family="Times,serif" font-size="14.00" fill="#000000">C</text>
</g>
<!-- D_and&#45;&gt;C -->
<g id="edge8" class="edge">
<title>D_and-&gt;C</title>
<path fill="none" stroke="#000000" d="M114.2693,-74.7307C124.197,-64.803 137.3153,-51.6847 148.4363,-40.5637"/>
<polygon fill="#000000" stroke="#000000" points="151.1564,-42.7933 155.7527,-33.2473 146.2067,-37.8436 151.1564,-42.7933"/>
</g>
<!-- E_and -->
<g id="node2" class="node">
<title>E_and</title>
<ellipse fill="none" stroke="#000000" cx="171" cy="-90" rx="27" ry="18"/>
<text text-anchor="middle" x="171" y="-85.8" font-family="Times,serif" font-size="14.00" fill="#000000">and</text>
</g>
<!-- E_and&#45;&gt;A -->
<g id="edge9" class="edge">
<title>E_and-&gt;A</title>
<path fill="none" stroke="#000000" d="M155.7307,-74.7307C145.803,-64.803 132.6847,-51.6847 121.5637,-40.5637"/>
<polygon fill="#000000" stroke="#000000" points="123.7933,-37.8436 114.2473,-33.2473 118.8436,-42.7933 123.7933,-37.8436"/>
</g>
<!-- E_and&#45;&gt;C -->
<g id="edge10" class="edge">
<title>E_and-&gt;C</title>
<path fill="none" stroke="#000000" d="M171,-71.8314C171,-64.131 171,-54.9743 171,-46.4166"/>
<polygon fill="#000000" stroke="#000000" points="174.5001,-46.4132 171,-36.4133 167.5001,-46.4133 174.5001,-46.4132"/>
</g>
<!-- F -->
<g id="node10" class="node">
<title>F</title>
<ellipse fill="none" stroke="#000000" cx="243" cy="-18" rx="27" ry="18"/>
<text text-anchor="middle" x="243" y="-13.8" font-family="Times,serif" font-size="14.00" fill="#000000">F</text>
</g>
<!-- E_and&#45;&gt;F -->
<g id="edge11" class="edge">
<title>E_and-&gt;F</title>
<path fill="none" stroke="#000000" d="M186.2693,-74.7307C196.197,-64.803 209.3153,-51.6847 220.4363,-40.5637"/>
<polygon fill="#000000" stroke="#000000" points="223.1564,-42.7933 227.7527,-33.2473 218.2067,-37.8436 223.1564,-42.7933"/>
</g>
<!-- x -->
<g id="node3" class="node">
<title>x</title>
<ellipse fill="none" stroke="#000000" cx="135" cy="-234" rx="27" ry="18"/>
<text text-anchor="middle" x="135" y="-229.8" font-family="Times,serif" font-size="14.00" fill="#000000">x</text>
</g>
<!-- OR -->
<g id="node4" class="node">
<title>OR</title>
<ellipse fill="none" stroke="#000000" cx="135" cy="-162" rx="27" ry="18"/>
<text text-anchor="middle" x="135" y="-157.8" font-family="Times,serif" font-size="14.00" fill="#000000">OR</text>
</g>
<!-- x&#45;&gt;OR -->
<g id="edge1" class="edge">
<title>x-&gt;OR</title>
<path fill="none" stroke="#000000" stroke-dasharray="1,5" d="M135,-215.8314C135,-208.131 135,-198.9743 135,-190.4166"/>
<polygon fill="#000000" stroke="#000000" points="138.5001,-190.4132 135,-180.4133 131.5001,-190.4133 138.5001,-190.4132"/>
</g>
<!-- OR&#45;&gt;D_and -->
<g id="edge4" class="edge">
<title>OR-&gt;D_and</title>
<path fill="none" stroke="#000000" d="M126.2854,-144.5708C122.0403,-136.0807 116.8464,-125.6929 112.1337,-116.2674"/>
<polygon fill="#000000" stroke="#000000" points="115.237,-114.6477 107.6343,-107.2687 108.976,-117.7782 115.237,-114.6477"/>
</g>
<!-- OR&#45;&gt;E_and -->
<g id="edge5" class="edge">
<title>OR-&gt;E_and</title>
<path fill="none" stroke="#000000" d="M143.7146,-144.5708C147.9597,-136.0807 153.1536,-125.6929 157.8663,-116.2674"/>
<polygon fill="#000000" stroke="#000000" points="161.024,-117.7782 162.3657,-107.2687 154.763,-114.6477 161.024,-117.7782"/>
</g>
<!-- E -->
<g id="node5" class="node">
<title>E</title>
<ellipse fill="none" stroke="#000000" cx="207" cy="-162" rx="27" ry="18"/>
<text text-anchor="middle" x="207" y="-157.8" font-family="Times,serif" font-size="14.00" fill="#000000">E</text>
</g>
<!-- E&#45;&gt;E_and -->
<g id="edge2" class="edge">
<title>E-&gt;E_and</title>
<path fill="none" stroke="#000000" stroke-dasharray="1,5" d="M198.2854,-144.5708C194.0403,-136.0807 188.8464,-125.6929 184.1337,-116.2674"/>
<polygon fill="#000000" stroke="#000000" points="187.237,-114.6477 179.6343,-107.2687 180.976,-117.7782 187.237,-114.6477"/>
</g>
<!-- D -->
<g id="node6" class="node">
<title>D</title>
<ellipse fill="none" stroke="#000000" cx="63" cy="-162" rx="27" ry="18"/>
<text text-anchor="middle" x="63" y="-157.8" font-family="Times,serif" font-size="14.00" fill="#000000">D</text>
</g>
<!-- D&#45;&gt;D_and -->
<g id="edge3" class="edge">
<title>D-&gt;D_and</title>
<path fill="none" stroke="#000000" stroke-dasharray="1,5" d="M71.7146,-144.5708C75.9597,-136.0807 81.1536,-125.6929 85.8663,-116.2674"/>
<polygon fill="#000000" stroke="#000000" points="89.024,-117.7782 90.3657,-107.2687 82.763,-114.6477 89.024,-117.7782"/>
</g>
</g>
</svg>